<svg width="35" height="35" viewBox="0 0 35 35" fill="none" xmlns="http://www.w3.org/2000/svg">
<g clip-path="url(#clip0)">
<path d="M33.5176 12.7468C32.9465 12.1788 32.0232 12.1813 31.4552 12.7524L13.9241 30.3782C11.6497 32.6526 7.95568 32.6527 5.677 30.3751C3.40004 28.097 3.40004 24.403 5.67728 22.1257L23.7272 3.98095C25.1472 2.56102 27.4559 2.56102 28.8799 3.98403C30.3036 5.40771 30.3036 7.71606 28.8796 9.14015L13.9269 24.0928C13.9259 24.0937 13.9251 24.0948 13.9241 24.0958C13.3545 24.6623 12.4339 24.6615 11.8654 24.093C11.2959 23.5236 11.2959 22.6006 11.8654 22.0312L19.0829 14.8121C19.6524 14.2426 19.6523 13.3191 19.0827 12.7497C18.5131 12.1802 17.5897 12.1803 17.0203 12.7499L9.80279 19.9688C8.09439 21.6772 8.09438 24.4469 9.80293 26.1554C11.5114 27.8639 14.2811 27.8639 15.9897 26.1554C15.9917 26.1534 15.9932 26.1513 15.9951 26.1493L30.942 11.2025C33.5051 8.63934 33.5051 4.48422 30.942 1.9211C28.3785 -0.640528 24.2237 -0.640528 21.6621 1.9211L3.61209 20.066C0.198554 23.4796 0.198554 29.0199 3.61455 32.4376C7.03281 35.8541 12.5732 35.8541 15.9894 32.4379L33.5232 14.8093C34.0912 14.2382 34.0886 13.3148 33.5176 12.7468Z" fill="#717171"/>
</g>
<defs>
<clipPath id="clip0">
<rect width="35" height="35" fill="white"/>
</clipPath>
</defs>
</svg>
