<svg width="47" height="50" viewBox="0 0 47 50" fill="none" xmlns="http://www.w3.org/2000/svg">
<path d="M41.6774 17.885H40.5489V12.0912C40.5489 12.0551 40.5434 12.0187 40.539 11.9821C40.5372 11.7521 40.4683 11.5262 40.3203 11.3472L31.2585 0.335315C31.2558 0.332488 31.253 0.331485 31.2512 0.328475C31.1973 0.264276 31.1343 0.210837 31.0677 0.164694C31.0479 0.15065 31.0281 0.138886 31.0073 0.126575C30.9497 0.0931987 30.8885 0.065385 30.8255 0.0452315C30.8084 0.0402159 30.7932 0.0330117 30.7761 0.0280873C30.7075 0.0107607 30.6365 0 30.5647 0H8.29389C7.27689 0 6.4508 0.879916 6.4508 1.96082V17.8845H5.32245C3.8676 17.8845 2.68799 19.1387 2.68799 20.6868V35.2605C2.68799 36.8072 3.8676 38.0629 5.32245 38.0629H6.4508V48.0393C6.4508 49.1203 7.27689 50 8.29389 50H38.7057C39.7218 50 40.5489 49.1203 40.5489 48.0393V38.063H41.6774C43.1317 38.063 44.3115 36.8078 44.3115 35.2606V20.6874C44.3116 19.1387 43.1317 17.885 41.6774 17.885ZM8.29389 1.96082H29.643V11.9925C29.643 12.5345 30.056 12.9729 30.5646 12.9729H38.7057V17.8849H8.29389V1.96082ZM30.4084 27.1772C30.4084 31.6344 27.8681 34.3362 24.1329 34.3362C20.3416 34.3362 18.1234 31.2911 18.1234 27.4194C18.1234 23.3452 20.5688 20.3001 24.3413 20.3001C28.2651 20.3001 30.4084 23.4255 30.4084 27.1772ZM5.5155 34.0542V20.7041C6.57707 20.5221 7.96069 20.4212 9.42112 20.4212C11.8475 20.4212 13.4206 20.8853 14.6529 21.8731C15.9799 22.922 16.8145 24.5962 16.8145 26.9957C16.8145 29.5974 15.9237 31.3921 14.6917 32.5013C13.3455 33.6913 11.2979 34.2556 8.79527 34.2556C7.29678 34.2557 6.23564 34.1549 5.5155 34.0542ZM38.7057 47.5078H8.29389V38.063H38.7057V47.5078ZM38.8451 31.7757C39.7173 31.7757 40.6843 31.573 41.2526 31.3319L41.6892 33.7316C41.1581 34.0151 39.9639 34.3161 38.4097 34.3161C33.9926 34.3161 31.7175 31.3922 31.7175 27.5199C31.7175 22.8825 34.8264 20.3001 38.6931 20.3001C40.1906 20.3001 41.3291 20.6227 41.8413 20.9054L41.2531 23.3452C40.6658 23.0833 39.8506 22.8408 38.8264 22.8408C36.5327 22.8408 34.7504 24.3133 34.7504 27.338C34.75 30.0609 36.2668 31.7757 38.8451 31.7757Z" fill="black"/>
<path d="M13.7427 27.0966C13.7616 24.2726 12.2068 22.7804 9.72406 22.7804C9.07944 22.7804 8.66146 22.8407 8.41553 22.9016V31.7958C8.66138 31.8564 9.06015 31.8564 9.42052 31.8564C12.0364 31.8761 13.7427 30.3433 13.7427 27.0966Z" fill="black"/>
<path d="M21.1758 27.3581C21.1758 30.0211 22.3514 31.8963 24.2848 31.8963C26.2377 31.8963 27.3559 29.9193 27.3559 27.2778C27.3559 24.8367 26.2566 22.7402 24.2659 22.7402C22.3141 22.7408 21.1758 24.7171 21.1758 27.3581Z" fill="black"/>
</svg>
