<svg width="35" height="35" viewBox="0 0 35 35" fill="none" xmlns="http://www.w3.org/2000/svg">
<path d="M6.01562 24.0625C3.30181 24.0625 1.09375 26.2703 1.09375 28.9844C1.09375 31.6985 3.30181 33.9062 6.01562 33.9062C8.72944 33.9062 10.9375 31.6985 10.9375 28.9844C10.9375 26.2703 8.72944 24.0625 6.01562 24.0625ZM6.01562 32.8125C3.90476 32.8125 2.1875 31.095 2.1875 28.9844C2.1875 26.8738 3.90476 25.1562 6.01562 25.1562C8.12649 25.1562 9.84375 26.8738 9.84375 28.9844C9.84375 31.095 8.12649 32.8125 6.01562 32.8125Z" fill="black"/>
<path d="M6.01562 27.3438C6.3171 27.3438 6.5625 27.5889 6.5625 27.8906H7.65625C7.65625 27.1786 7.1977 26.5772 6.5625 26.3508V25.7031H5.46875V26.3508C4.83355 26.5772 4.375 27.1786 4.375 27.8906C4.375 28.7953 5.11093 29.5312 6.01562 29.5312C6.3171 29.5312 6.5625 29.7764 6.5625 30.0781C6.5625 30.3799 6.3171 30.625 6.01562 30.625C5.71415 30.625 5.46875 30.3799 5.46875 30.0781H4.375C4.375 30.7901 4.83355 31.3915 5.46875 31.6179V32.2656H6.5625V31.618C7.1977 31.3915 7.65625 30.7901 7.65625 30.0781C7.65625 29.1734 6.92032 28.4375 6.01562 28.4375C5.71415 28.4375 5.46875 28.1924 5.46875 27.8906C5.46875 27.5889 5.71415 27.3438 6.01562 27.3438Z" fill="black"/>
<path d="M28.9844 1.09375C26.2706 1.09375 24.0625 3.30154 24.0625 6.01562V8.75V11.4844V14.2188V16.9531V19.6875C24.0625 22.4016 26.2706 24.6094 28.9844 24.6094C31.6982 24.6094 33.9062 22.4016 33.9062 19.6875V16.9531V14.2188V11.4844V8.75V6.01562C33.9062 3.30154 31.6982 1.09375 28.9844 1.09375ZM28.9844 15.3125C27.0011 15.3125 25.3659 13.7962 25.1754 11.8624C26.0788 12.9659 27.4504 13.6719 28.9844 13.6719C30.5184 13.6719 31.89 12.9659 32.7933 11.8624C32.6028 13.7962 30.9676 15.3125 28.9844 15.3125ZM32.7933 14.5968C32.6028 16.5305 30.9676 18.0469 28.9844 18.0469C27.0011 18.0469 25.3659 16.5305 25.1754 14.5968C26.0788 15.7003 27.4504 16.4062 28.9844 16.4062C30.5184 16.4062 31.89 15.7003 32.7933 14.5968ZM28.9844 19.1406C30.5184 19.1406 31.89 18.4347 32.7933 17.3311C32.6028 19.2649 30.9676 20.7812 28.9844 20.7812C27.0011 20.7812 25.3659 19.2649 25.1754 17.3311C26.0788 18.4347 27.4504 19.1406 28.9844 19.1406ZM28.9844 12.5781C27.0011 12.5781 25.3659 11.0618 25.1754 9.12801C26.0788 10.2315 27.4504 10.9375 28.9844 10.9375C30.5184 10.9375 31.89 10.2315 32.7933 9.12801C32.6028 11.0618 30.9676 12.5781 28.9844 12.5781ZM28.9844 23.5156C27.0011 23.5156 25.3659 21.9993 25.1754 20.0655C26.0788 21.169 27.4504 21.875 28.9844 21.875C30.5184 21.875 31.89 21.169 32.7933 20.0655C32.6028 21.9993 30.9676 23.5156 28.9844 23.5156ZM28.9844 9.84375C26.8735 9.84375 25.1562 8.12622 25.1562 6.01562C25.1562 3.90503 26.8735 2.1875 28.9844 2.1875C31.0952 2.1875 32.8125 3.90503 32.8125 6.01562C32.8125 8.12622 31.0952 9.84375 28.9844 9.84375Z" fill="black"/>
<path d="M28.9844 4.375C29.2859 4.375 29.5312 4.62013 29.5312 4.92188H30.625C30.625 4.20988 30.1664 3.60849 29.5312 3.38202V2.73438H28.4375V3.38202C27.8023 3.60849 27.3438 4.20988 27.3438 4.92188C27.3438 5.82657 28.0797 6.5625 28.9844 6.5625C29.2859 6.5625 29.5312 6.80763 29.5312 7.10938C29.5312 7.41112 29.2859 7.65625 28.9844 7.65625C28.6829 7.65625 28.4375 7.41112 28.4375 7.10938H27.3438C27.3438 7.82137 27.8023 8.42272 28.4375 8.64919V9.29688H29.5312V8.64923C30.1664 8.42276 30.625 7.82137 30.625 7.10938C30.625 6.20468 29.8891 5.46875 28.9844 5.46875C28.6829 5.46875 28.4375 5.22362 28.4375 4.92188C28.4375 4.62013 28.6829 4.375 28.9844 4.375Z" fill="black"/>
<path d="M20.621 6.72278L19.8477 7.49609L21.1017 8.75006H9.29688C6.28132 8.75006 3.82812 11.2035 3.82812 14.2188C3.82812 17.2341 6.28132 19.6876 9.29688 19.6876H16.9531C19.3655 19.6876 21.3281 21.6502 21.3281 24.0626C21.3281 26.4749 19.3655 28.4376 16.9531 28.4376H16.4062V29.5313H16.9531C19.9687 29.5313 22.4219 27.0779 22.4219 24.0626C22.4219 21.0473 19.9687 18.5938 16.9531 18.5938H9.29688C6.88454 18.5938 4.92188 16.6312 4.92188 14.2188C4.92188 11.8065 6.88454 9.84381 9.29688 9.84381H21.1017L19.8477 11.0978L20.621 11.8711L22.8085 9.68359C23.0222 9.46997 23.0222 9.1239 22.8085 8.91028L20.621 6.72278Z" fill="black"/>
<path d="M14.2188 28.4375H15.3125V29.5312H14.2188V28.4375Z" fill="black"/>
<path d="M12.0312 28.4375H13.125V29.5312H12.0312V28.4375Z" fill="black"/>
</svg>
