<svg width="35" height="35" viewBox="0 0 35 35" fill="none" xmlns="http://www.w3.org/2000/svg">
<path d="M6.40228 16.1911C6.2458 16.0346 6.01082 15.9871 5.80628 16.0725C5.60173 16.1569 5.46875 16.3566 5.46875 16.5778V28.9844C5.46875 29.2867 5.71335 29.5313 6.01562 29.5313H18.4223C18.6434 29.5313 18.8431 29.3983 18.9275 29.1938C19.0124 28.9892 18.9654 28.7543 18.809 28.5978L6.40228 16.1911ZM6.5625 17.8979L9.84374 21.1792V28.4376H6.5625V17.8979ZM10.9375 28.4376V22.2729L17.1021 28.4376H10.9375Z" fill="#0A0A0A"/>
<path d="M29.9179 1.25397C29.8154 1.15143 29.6765 1.09375 29.5312 1.09375H10.3906C10.0884 1.09375 9.84375 1.33835 9.84375 1.64062V13.4454L2.02728 5.62897C1.8708 5.47249 1.63582 5.42549 1.43128 5.51041C1.22673 5.59479 1.09375 5.79452 1.09375 6.01562V33.3594C1.09375 33.6616 1.33835 33.9062 1.64062 33.9062H28.9844C29.2055 33.9062 29.4052 33.7733 29.4896 33.5687C29.5745 33.3642 29.5275 33.1292 29.371 32.9727L25.9296 29.5312H27.8906H33.3594C33.6616 29.5312 33.9062 29.2866 33.9062 28.9844V9.84375V5.46875C33.9062 5.32349 33.8486 5.18463 33.746 5.08209L29.9179 1.25397ZM2.1875 32.8125V7.33581L4.69544 9.84375L3.98834 10.5508L4.76166 11.3242L5.46875 10.6171L6.33606 11.4844L5.62897 12.1915L6.40228 12.9648L7.10938 12.2577L7.97669 13.125L7.26959 13.8321L8.04291 14.6054L8.75 13.8983L9.61731 14.7656L8.91022 15.4727L9.68353 16.246L10.3906 15.5389L11.2579 16.4062L10.5508 17.1133L11.3242 17.8867L12.0312 17.1796L12.8986 18.0469L12.1915 18.754L12.9648 19.5273L13.6719 18.8202L14.5392 19.6875L13.8321 20.3946L14.6054 21.1679L15.3125 20.4608L16.1798 21.3281L15.4727 22.0352L16.246 22.8085L16.9531 22.1014L17.8204 22.9688L17.1133 23.6758L17.8867 24.4492L18.5938 23.7421L19.4611 24.6094L18.754 25.3165L19.5273 26.0898L20.2344 25.3827L21.1017 26.25L20.3946 26.9571L21.1679 27.7304L21.875 27.0233L22.7423 27.8906L22.0352 28.5977L22.8085 29.371L23.5156 28.6639L24.3829 29.5312L23.6758 30.2383L24.4492 31.0117L25.1562 30.3046L27.6642 32.8125H2.1875ZM13.6719 8.20312H15.8594V19.4611L13.6719 17.2736V8.20312ZM14.0099 7.10938L14.7656 5.59799L15.5213 7.10938H14.0099ZM20.7903 18.1088L21.7223 15.3125H23.1215L24.0534 18.1088L23.1846 26.7863L21.4866 25.0883L20.7903 18.1088ZM22.9688 12.0312V9.56314L24.5148 12.0371L23.206 14.2188H21.6378L20.3289 12.0371L21.875 9.56314V12.0312H22.9688ZM24.1839 27.7856L25.1536 18.1013C25.1611 18.0244 25.1525 17.947 25.1279 17.8738L24.1138 14.8315L25.6251 12.3127C25.7309 12.1365 25.7288 11.9159 25.6198 11.7413L22.8854 7.36625C22.6857 7.04689 22.158 7.04689 21.9583 7.36625L19.2239 11.7413C19.115 11.9159 19.1128 12.1365 19.2186 12.3127L20.7299 14.8315L19.7158 17.8738C19.6912 17.947 19.6827 18.0244 19.6902 18.1013L20.2655 23.8672L16.9531 20.5548V7.65625C16.9531 7.57134 16.9334 7.48749 16.8954 7.41165L15.2548 4.1304C15.069 3.75977 14.4623 3.75977 14.2764 4.1304L12.6358 7.41165C12.5979 7.48749 12.5781 7.57134 12.5781 7.65625V16.1798L10.9375 14.5392V2.1875H29.3048L32.0392 4.92188H30.0781V3.82812H28.9844V5.46875C28.9844 5.77102 29.229 6.01562 29.5312 6.01562H32.8125V9.29688H27.8906C27.5884 9.29688 27.3438 9.54148 27.3438 9.84375V28.4375H24.8358L24.1839 27.7856ZM28.4375 28.4375V10.3906H32.8125V12.0312H31.7188V13.125H32.8125V14.7656H31.7188V15.8594H32.8125V17.5H31.7188V18.5938H32.8125V20.2344H31.7188V21.3281H32.8125V22.9688H31.7188V24.0625H32.8125V25.7031H31.7188V26.7969H32.8125V28.4375H28.4375Z" fill="#0A0A0A"/>
<path d="M3.28125 30.625H4.375V31.7188H3.28125V30.625Z" fill="#0A0A0A"/>
<path d="M5.46875 30.625H6.5625V31.7188H5.46875V30.625Z" fill="#0A0A0A"/>
<path d="M7.65625 30.625H8.75V31.7188H7.65625V30.625Z" fill="#0A0A0A"/>
</svg>
