<svg width="45" height="45" viewBox="0 0 45 45" fill="none" xmlns="http://www.w3.org/2000/svg">
<rect width="45" height="45" rx="5" fill="#FF9900"/>
<path d="M31.7969 33.8906C32.7016 33.8906 33.4375 33.1547 33.4375 32.25C33.4375 31.3453 32.7016 30.6094 31.7969 30.6094V14.75C31.7969 14.5855 31.7226 14.4296 31.5947 14.3254L22.8447 7.21607C22.6439 7.05265 22.3561 7.05265 22.1553 7.21607L13.4053 14.3254C13.2774 14.4296 13.2031 14.5855 13.2031 14.75V30.6094C12.2984 30.6094 11.5625 31.3453 11.5625 32.25C11.5625 33.1547 12.2984 33.8906 13.2031 33.8906H13.75V34.758L11.7227 36.7852C11.6202 36.8878 11.5625 37.0266 11.5625 37.1719V39.9063H12.6562V37.3983L14.6835 35.3711C14.7861 35.2685 14.8438 35.1297 14.8438 34.9844V33.8906H19.2188V35.8517L17.7383 37.3321C17.6358 37.4347 17.5781 37.5735 17.5781 37.7188V39.9063H18.6719V37.9452L20.1523 36.4648C20.2548 36.3623 20.3125 36.2234 20.3125 36.0781V33.8906H21.9531V37.1719H23.0469V33.8906H27.4219V35.5313C27.4219 35.6765 27.4796 35.8154 27.5821 35.9179L29.6094 37.9452V39.9063H30.7031V37.7188C30.7031 37.5735 30.6454 37.4347 30.5429 37.3321L28.5156 35.3048V33.8906H30.1562V34.9844C30.1562 35.1297 30.2139 35.2685 30.3165 35.3711L32.3438 37.3983V37.7188H33.4375V37.1719C33.4375 37.0266 33.3798 36.8878 33.2773 36.7852L31.25 34.758V33.8906H31.7969ZM30.2474 14.6398L26.8438 16.3415L22.692 14.7847C22.5681 14.7388 22.4319 14.7388 22.308 14.7847L18.1562 16.3415L14.7526 14.6398L19.3285 10.9219H25.6715L30.2474 14.6398ZM18.6719 17.3166L21.9531 16.0862V30.6094H18.6719V17.3166ZM23.0469 16.0862L26.3281 17.3166V30.6094H23.0469V16.0862ZM27.4219 17.2756L30.7031 15.635V30.6094H27.4219V17.2756ZM22.5 8.34507L24.3253 9.82815H20.6747L22.5 8.34507ZM14.2969 15.635L17.5781 17.2756V30.6094H14.2969V15.635ZM12.6562 32.25C12.6562 31.9483 12.9016 31.7031 13.2031 31.7031H13.75H31.25H31.7969C32.0984 31.7031 32.3438 31.9483 32.3438 32.25C32.3438 32.5518 32.0984 32.7969 31.7969 32.7969H13.2031C12.9016 32.7969 12.6562 32.5518 12.6562 32.25Z" fill="white"/>
<path d="M21.9531 38.2656H23.0469V39.9062H21.9531V38.2656Z" fill="white"/>
<path d="M25.7812 36.3986V34.9844H24.6875V36.625C24.6875 36.7703 24.7452 36.9091 24.8477 37.0117L26.3281 38.4921V39.9062H27.4219V38.2656C27.4219 38.1204 27.3642 37.9815 27.2617 37.879L25.7812 36.3986Z" fill="white"/>
<path d="M32.3438 38.8125H33.4375V39.9062H32.3438V38.8125Z" fill="white"/>
<path d="M17.5781 34.9844H16.4844V35.3048L14.4571 37.3321C14.3546 37.4346 14.2969 37.5735 14.2969 37.7188V39.9062H15.3906V37.9452L17.4179 35.9179C17.5204 35.8154 17.5781 35.6765 17.5781 35.5312V34.9844Z" fill="white"/>
</svg>
