<svg width="35" height="35" viewBox="0 0 35 35" fill="none" xmlns="http://www.w3.org/2000/svg">
<path d="M13.3984 4.10156C13.0211 4.10156 12.7148 4.40781 12.7148 4.78516C12.7148 5.1625 13.0211 5.46875 13.3984 5.46875C13.7758 5.46875 14.082 5.1625 14.082 4.78516C14.082 4.40781 13.7758 4.10156 13.3984 4.10156Z" fill="black"/>
<path d="M17.5002 9.57031C17.1233 9.57031 16.8167 9.26365 16.8167 8.88672C16.8167 8.50979 17.1233 8.20312 17.5002 8.20312C17.7424 8.20312 17.998 8.32665 18.2396 8.56044C18.511 8.82301 18.9437 8.81583 19.2062 8.54458C19.4687 8.27326 19.4616 7.84048 19.1904 7.57791C18.8434 7.2422 18.4963 7.0523 18.1838 6.94866V6.15234C18.1838 5.77479 17.8777 5.46875 17.5002 5.46875C17.1228 5.46875 16.8167 5.77479 16.8167 6.15234V6.95352C16.021 7.2357 15.4495 7.99552 15.4495 8.88672C15.4495 10.0175 16.3694 10.9375 17.5002 10.9375C17.8772 10.9375 18.1838 11.2442 18.1838 11.6211C18.1838 11.998 17.8772 12.3047 17.5002 12.3047C17.2082 12.3047 16.8929 12.121 16.6126 11.7875C16.3697 11.4985 15.9384 11.4613 15.6495 11.7042C15.3605 11.9472 15.3232 12.3784 15.5661 12.6673C15.9315 13.102 16.3612 13.4049 16.8167 13.5576V14.3555C16.8167 14.733 17.1228 15.0391 17.5002 15.0391C17.8777 15.0391 18.1838 14.733 18.1838 14.3555V13.5543C18.9795 13.2721 19.551 12.5123 19.551 11.6211C19.551 10.4903 18.631 9.57031 17.5002 9.57031Z" fill="black"/>
<path d="M32.2656 9.98047C30.7579 9.98047 29.5312 11.2071 29.5312 12.7148V17.5868C28.6232 17.353 27.6211 17.5945 26.9144 18.3011L22.3299 22.8856C21.6839 23.5307 21.3281 24.3893 21.3281 25.3032V29.3262H20.6445C20.2671 29.3262 19.9609 29.6322 19.9609 30.0098V34.3164C19.9609 34.694 20.2671 35 20.6445 35H30.2148C30.5923 35 30.8984 34.694 30.8984 34.3164V30.0098C30.8984 29.6322 30.5923 29.3262 30.2148 29.3262H29.5312V29.0035C29.5312 28.8238 29.6043 28.6476 29.7317 28.5203L33.9987 24.2533C34.6444 23.6075 35 22.749 35 21.836V12.7148C35 11.2071 33.7734 9.98047 32.2656 9.98047ZM29.5312 33.6328H21.3281V30.6934H29.5312V33.6328ZM33.6328 21.836C33.6328 22.3839 33.4194 22.899 33.0319 23.2866L28.7649 27.5535C28.383 27.9354 28.1641 28.4639 28.1641 29.0035V29.3262H22.6953V25.3032C22.6953 24.7548 22.9086 24.2398 23.2963 23.8527L27.8811 19.2678C28.3942 18.7547 29.2185 18.7316 29.7576 19.2153C29.7615 19.2188 29.7654 19.2222 29.7693 19.2256C29.7849 19.2389 29.7996 19.2533 29.8143 19.268C30.0726 19.5261 30.2148 19.8693 30.2148 20.2344C30.2148 20.5995 30.0726 20.9426 29.8142 21.2009L26.4174 24.5977C26.1505 24.8646 26.1505 25.2975 26.4174 25.5645C26.6844 25.8314 27.1171 25.8315 27.3842 25.5645L30.7809 22.1679C31.2975 21.6515 31.582 20.9649 31.582 20.2344C31.582 19.5617 31.3402 18.9265 30.8984 18.427V12.7148C30.8984 11.961 31.5118 11.3477 32.2656 11.3477C33.0195 11.3477 33.6328 11.961 33.6328 12.7148V21.836Z" fill="black"/>
<path d="M14.3555 29.3262H13.6719V25.3032C13.6719 24.3893 13.3161 23.5307 12.6705 22.886L8.08568 18.3011C7.37892 17.5943 6.37684 17.3529 5.46875 17.5868V12.7148C5.46875 11.2071 4.24211 9.98047 2.73438 9.98047C1.22664 9.98047 0 11.2071 0 12.7148V21.836C0 22.749 0.355605 23.6075 1.00133 24.2533L5.26832 28.5202C5.39574 28.6476 5.46875 28.8237 5.46875 29.0035V29.3262H4.78516C4.40768 29.3262 4.10156 29.6322 4.10156 30.0098V34.3164C4.10156 34.694 4.40768 35 4.78516 35H14.3555C14.7329 35 15.0391 34.694 15.0391 34.3164V30.0098C15.0391 29.6322 14.7329 29.3262 14.3555 29.3262ZM1.96813 23.2866C1.58061 22.899 1.36719 22.3839 1.36719 21.836V12.7148C1.36719 11.961 1.98051 11.3477 2.73438 11.3477C3.48824 11.3477 4.10156 11.961 4.10156 12.7148V18.4269C3.65982 18.9265 3.41797 19.5616 3.41797 20.2344C3.41797 20.9649 3.70255 21.6515 4.21907 22.1676L7.63704 25.5856C7.90405 25.8526 8.33677 25.8526 8.60385 25.5856C8.87079 25.3187 8.87079 24.8858 8.60385 24.6188L5.18567 21.2006C4.92741 20.9426 4.78516 20.5995 4.78516 20.2344C4.78516 19.8693 4.92741 19.5261 5.18547 19.2681C5.20037 19.2533 5.21507 19.2389 5.23059 19.2256L5.24234 19.2153C5.78136 18.7316 6.6057 18.7547 7.11881 19.2678L11.704 23.853C12.0913 24.2398 12.3046 24.7548 12.3046 25.3032V29.3262H6.83587V29.0035C6.83594 28.4639 6.61698 27.9354 6.23513 27.5535L1.96813 23.2866ZM13.6719 33.6328H5.46875V30.6934H13.6719V33.6328Z" fill="black"/>
<path d="M17.5 0C11.846 0 7.24609 4.5999 7.24609 10.2539C7.24609 15.9079 11.846 20.5078 17.5 20.5078C23.154 20.5078 27.7539 15.9079 27.7539 10.2539C27.7539 4.5999 23.154 0 17.5 0ZM17.5 19.1406C12.5998 19.1406 8.61328 15.154 8.61328 10.2539C8.61328 5.35377 12.5998 1.36719 17.5 1.36719C22.4002 1.36719 26.3867 5.35377 26.3867 10.2539C26.3867 15.154 22.4002 19.1406 17.5 19.1406Z" fill="black"/>
<path d="M22.2205 4.40022C20.4417 2.96399 18.1137 2.42231 15.8343 2.91375C15.4652 2.99332 15.2305 3.35699 15.3101 3.72606C15.3897 4.09507 15.7534 4.32954 16.1224 4.25017C17.9961 3.84617 19.9058 4.28852 21.3617 5.46389C22.8174 6.63933 23.6523 8.38516 23.6523 10.2539C23.6523 13.6463 20.8924 16.4062 17.5 16.4062C14.1076 16.4062 11.3477 13.6463 11.3477 10.2539C11.3477 9.24054 11.5992 8.23607 12.0751 7.34918C12.2536 7.01654 12.1287 6.60215 11.796 6.42359C11.4633 6.24504 11.0489 6.37007 10.8704 6.7027C10.2882 7.78777 9.98047 9.01571 9.98047 10.2539C9.98047 14.4002 13.3537 17.7734 17.5 17.7734C21.6463 17.7734 25.0195 14.4002 25.0195 10.2539C25.0195 7.96995 23.9993 5.83638 22.2205 4.40022Z" fill="black"/>
</svg>
