<svg width="35" height="35" viewBox="0 0 35 35" fill="none" xmlns="http://www.w3.org/2000/svg">
<path d="M30.4648 1.25397C30.3622 1.15143 30.2231 1.09375 30.0781 1.09375H25.7031C25.4011 1.09375 25.1562 1.33861 25.1562 1.64062V10.3906C25.1562 10.6926 25.4011 10.9375 25.7031 10.9375H28.9844V12.5781H18.0469V10.9375H21.3281C21.6301 10.9375 21.875 10.6926 21.875 10.3906V4.92188C21.875 4.77688 21.8173 4.63776 21.7148 4.53522L18.4335 1.25397C18.331 1.15143 18.1919 1.09375 18.0469 1.09375H13.6719C13.3699 1.09375 13.125 1.33861 13.125 1.64062V10.3906C13.125 10.6926 13.3699 10.9375 13.6719 10.9375H16.9531V12.5781H6.01562V10.9375H9.29688C9.59889 10.9375 9.84375 10.6926 9.84375 10.3906V4.92188C9.84375 4.77688 9.78607 4.63776 9.68353 4.53522L6.40228 1.25397C6.29974 1.15143 6.16062 1.09375 6.01562 1.09375H1.64062C1.33861 1.09375 1.09375 1.33861 1.09375 1.64062V10.3906C1.09375 10.6926 1.33861 10.9375 1.64062 10.9375H4.92188V13.125C4.92188 13.427 5.16674 13.6719 5.46875 13.6719H16.9531V15.3125H13.125C12.823 15.3125 12.5781 15.5574 12.5781 15.8594V20.2344C12.5781 20.5364 12.823 20.7812 13.125 20.7812H21.875C22.177 20.7812 22.4219 20.5364 22.4219 20.2344V18.5938H26.7969C28.3045 18.5938 29.5312 19.8205 29.5312 21.3281C29.5312 22.8358 28.3045 24.0625 26.7969 24.0625H24.2889L24.996 23.3554L24.2227 22.5821L22.5821 24.2227C22.4753 24.3295 22.4219 24.4695 22.4219 24.6094C22.4219 24.7493 22.4753 24.8892 22.5821 24.996L24.2227 26.6367L24.996 25.8633L24.2889 25.1562H26.7969C28.9077 25.1562 30.625 23.439 30.625 21.3281C30.625 19.2173 28.9077 17.5 26.7969 17.5H22.4219V15.8594C22.4219 15.5574 22.177 15.3125 21.875 15.3125H18.0469V13.6719H29.5312C29.8333 13.6719 30.0781 13.427 30.0781 13.125V10.9375H33.3594C33.6614 10.9375 33.9062 10.6926 33.9062 10.3906V4.92188C33.9062 4.77688 33.8486 4.63776 33.746 4.53522L30.4648 1.25397ZM14.2188 2.1875H17.8204L20.0079 4.375H18.5938V3.28125H17.5V4.92188C17.5 5.22389 17.7449 5.46875 18.0469 5.46875H20.7812V9.84375H14.2188V2.1875ZM2.1875 2.1875H5.78919L7.97669 4.375H6.5625V3.28125H5.46875V4.92188C5.46875 5.22389 5.71361 5.46875 6.01562 5.46875H8.75V9.84375H2.1875V2.1875ZM21.3281 19.6875H13.6719V16.4062H21.3281V19.6875ZM26.25 9.84375V2.1875H29.8517L32.0392 4.375H30.625V3.28125H29.5312V4.92188C29.5312 5.22389 29.7761 5.46875 30.0781 5.46875H32.8125V9.84375H26.25Z" fill="black"/>
<path d="M21.875 21.875H13.125C12.823 21.875 12.5781 22.1199 12.5781 22.4219V24.0625H8.20312C6.09226 24.0625 4.375 25.7798 4.375 27.8906C4.375 30.0015 6.09226 31.7188 8.20312 31.7188H10.7111L10.004 32.4258L10.7773 33.1992L12.4179 31.5585C12.5247 31.4517 12.5781 31.3118 12.5781 31.1719C12.5781 31.032 12.5247 30.892 12.4179 30.7852L10.7773 29.1446L10.004 29.9179L10.7111 30.625H8.20312C6.69548 30.625 5.46875 29.3983 5.46875 27.8906C5.46875 26.383 6.69548 25.1562 8.20312 25.1562H12.5781V26.7969C12.5781 27.0989 12.823 27.3438 13.125 27.3438H21.875C22.177 27.3438 22.4219 27.0989 22.4219 26.7969V24.6094V22.4219C22.4219 22.1199 22.177 21.875 21.875 21.875ZM21.3281 26.25H13.6719V22.9688H21.3281V26.25Z" fill="black"/>
<path d="M13.125 33.9062H21.875C22.177 33.9062 22.4219 33.6614 22.4219 33.3594V28.9844C22.4219 28.6824 22.177 28.4375 21.875 28.4375H13.125C12.823 28.4375 12.5781 28.6824 12.5781 28.9844V31.1719V33.3594C12.5781 33.6614 12.823 33.9062 13.125 33.9062ZM13.6719 29.5312H21.3281V32.8125H13.6719V29.5312Z" fill="black"/>
</svg>
