<svg width="35" height="35" viewBox="0 0 35 35" fill="none" xmlns="http://www.w3.org/2000/svg">
<path d="M31.1719 7.10938C31.1719 3.79234 28.4733 1.09375 25.1562 1.09375C21.8392 1.09375 19.1406 3.79234 19.1406 7.10938C19.1406 10.2418 21.548 12.8198 24.6094 13.0973V15.4133C23.9742 15.6397 23.5156 16.2411 23.5156 16.9531V19.6875H19.9388C20.4607 19.1063 20.7812 18.3408 20.7812 17.5C20.7812 15.6906 19.3094 14.2188 17.5 14.2188C15.6906 14.2188 14.2188 15.6906 14.2188 17.5C14.2188 18.3408 14.5393 19.1063 15.0612 19.6875H11.4844V16.9531C11.4844 16.2411 11.0258 15.6397 10.3906 15.4133V13.0973C13.452 12.8198 15.8594 10.2418 15.8594 7.10938C15.8594 3.79234 13.1608 1.09375 9.84375 1.09375C6.52672 1.09375 3.82812 3.79234 3.82812 7.10938C3.82812 10.2418 6.23552 12.8198 9.29688 13.0973V15.4133C8.66168 15.6397 8.20312 16.2411 8.20312 16.9531V20.2344C8.20312 21.742 9.42985 22.9688 10.9375 22.9688H14.2188V33.3594C14.2188 33.6616 14.4634 33.9062 14.7656 33.9062H20.2344C20.5366 33.9062 20.7812 33.6616 20.7812 33.3594V22.9688H24.0625C25.5701 22.9688 26.7969 21.742 26.7969 20.2344V16.9531C26.7969 16.2411 26.3383 15.6397 25.7031 15.4133V13.0973C28.7645 12.8198 31.1719 10.2418 31.1719 7.10938ZM20.2344 7.10938C20.2344 4.39529 22.4422 2.1875 25.1562 2.1875C27.8703 2.1875 30.0781 4.39529 30.0781 7.10938C30.0781 9.82346 27.8703 12.0312 25.1562 12.0312C22.4422 12.0312 20.2344 9.82346 20.2344 7.10938ZM15.3125 17.5C15.3125 16.2936 16.2936 15.3125 17.5 15.3125C18.7064 15.3125 19.6875 16.2936 19.6875 17.5C19.6875 18.7064 18.7064 19.6875 17.5 19.6875C16.2936 19.6875 15.3125 18.7064 15.3125 17.5ZM4.92188 7.10938C4.92188 4.39529 7.12967 2.1875 9.84375 2.1875C12.5578 2.1875 14.7656 4.39529 14.7656 7.10938C14.7656 9.82346 12.5578 12.0312 9.84375 12.0312C7.12967 12.0312 4.92188 9.82346 4.92188 7.10938ZM25.7031 20.2344C25.7031 21.1391 24.9672 21.875 24.0625 21.875H20.2344C19.9321 21.875 19.6875 22.1196 19.6875 22.4219V32.8125H18.0469V26.7969H16.9531V32.8125H15.3125V22.4219C15.3125 22.1196 15.0679 21.875 14.7656 21.875H10.9375C10.0328 21.875 9.29688 21.1391 9.29688 20.2344V16.9531C9.29688 16.6514 9.54201 16.4062 9.84375 16.4062C10.1455 16.4062 10.3906 16.6514 10.3906 16.9531V20.2344C10.3906 20.5366 10.6352 20.7812 10.9375 20.7812H24.0625C24.3648 20.7812 24.6094 20.5366 24.6094 20.2344V16.9531C24.6094 16.6514 24.8545 16.4062 25.1562 16.4062C25.458 16.4062 25.7031 16.6514 25.7031 16.9531V20.2344Z" fill="black"/>
<path d="M12.1914 5.08215L8.74994 8.52362L7.49597 7.26965L6.72266 8.04297L8.36328 9.68359C8.47009 9.7904 8.61002 9.84381 8.74994 9.84381C8.88986 9.84381 9.02979 9.7904 9.1366 9.68359L12.9647 5.85547L12.1914 5.08215Z" fill="black"/>
<path d="M26.957 9.6836L27.7303 8.91028L25.9295 7.10944L27.7303 5.30859L26.957 4.53528L25.1562 6.33612L23.3553 4.53528L22.582 5.30859L24.3829 7.10944L22.582 8.91028L23.3553 9.6836L25.1562 7.88275L26.957 9.6836Z" fill="black"/>
</svg>
