<svg width="35" height="35" viewBox="0 0 35 35" fill="none" xmlns="http://www.w3.org/2000/svg">
<path d="M1.14876 24.0561C1.17172 24.289 1.34049 24.4818 1.56853 24.5346L2.93625 24.854C3.00835 25.2038 3.10074 25.5493 3.2129 25.8885L2.19391 26.8434C2.02302 27.003 1.97281 27.2546 2.06948 27.4677C2.36695 28.1246 2.73331 28.758 3.15949 29.3492C3.29621 29.5387 3.53653 29.6215 3.76244 29.5532L5.08797 29.15C5.32669 29.418 5.58144 29.6733 5.85007 29.9121L5.44632 31.2376C5.3785 31.4614 5.46021 31.7038 5.65033 31.8405C6.241 32.2662 6.87439 32.6331 7.53236 32.9305C7.74651 33.0267 7.99645 32.977 8.15667 32.8061L9.11156 31.7866C9.45015 31.8987 9.79622 31.9917 10.146 32.0638L10.4654 33.4315C10.5183 33.6595 10.7111 33.8283 10.9439 33.8513C11.3129 33.8876 11.6788 33.9063 12.0312 33.9063C12.3837 33.9063 12.7496 33.8876 13.1186 33.8513C13.3514 33.8283 13.5442 33.6595 13.5971 33.4315L13.9165 32.0638C14.2663 31.9917 14.6118 31.8993 14.9509 31.7871L15.9058 32.8061C16.0666 32.977 16.3171 33.0267 16.5301 32.9305C17.187 32.6331 17.8204 32.2667 18.4116 31.8405C18.6018 31.7038 18.6835 31.4614 18.6156 31.2376L18.2124 29.9121C18.4805 29.6733 18.7358 29.4186 18.9745 29.15L20.3001 29.5537C20.5228 29.6221 20.7663 29.5393 20.903 29.3497C21.3287 28.759 21.6956 28.1256 21.993 27.4677C22.0897 27.2546 22.0395 27.003 21.8686 26.8434L20.8496 25.8885C20.9618 25.5493 21.0542 25.2038 21.1263 24.854L22.494 24.5346C22.722 24.4818 22.8908 24.289 22.9137 24.0561C22.9501 23.6871 22.9688 23.3212 22.9688 22.9688C22.9688 22.6163 22.9501 22.2505 22.9137 21.8814C22.8908 21.6486 22.722 21.4558 22.494 21.4029L21.1262 21.0835C21.0541 20.7337 20.9618 20.3882 20.8496 20.0491L21.8686 19.0942C22.0395 18.9345 22.0897 18.683 21.993 18.4699C21.6955 17.813 21.3292 17.1796 20.903 16.5884C20.7663 16.3983 20.5249 16.3155 20.3001 16.3844L18.9745 16.7876C18.7358 16.5195 18.4811 16.2642 18.2124 16.0255L18.6162 14.7C18.684 14.4762 18.6023 14.2337 18.4122 14.097C17.8215 13.6714 17.1881 13.3045 16.5301 13.007C16.3171 12.9119 16.0666 12.9611 15.9058 13.1314L14.9509 14.1509C14.6123 14.0388 14.2663 13.9459 13.9165 13.8738L13.5971 12.506C13.5442 12.278 13.3514 12.1092 13.1186 12.0863C12.3805 12.0136 11.682 12.0136 10.9439 12.0863C10.7111 12.1092 10.5183 12.278 10.4654 12.506L10.146 13.8738C9.79622 13.9459 9.45069 14.0383 9.11156 14.1504L8.15667 13.1314C7.99645 12.9611 7.74651 12.9119 7.53236 13.007C6.87547 13.3045 6.24207 13.6708 5.65087 14.097C5.46074 14.2337 5.37904 14.4762 5.44686 14.7L5.85007 16.0255C5.58144 16.2647 5.32616 16.5195 5.08797 16.7871L3.76244 16.3838C3.53921 16.316 3.29621 16.3983 3.15949 16.5879C2.73384 17.1785 2.36695 17.8119 2.06948 18.4699C1.97281 18.683 2.02302 18.9345 2.19391 19.0942L3.21343 20.0491C3.10128 20.3877 3.00835 20.7337 2.93625 21.0836L1.56853 21.4029C1.34049 21.4558 1.17172 21.6486 1.14876 21.8814C1.11244 22.2505 1.09375 22.6163 1.09375 22.9688C1.09375 23.3212 1.11244 23.6871 1.14876 24.0561ZM2.20619 22.377L3.53333 22.0673C3.74855 22.0171 3.91251 21.8419 3.94829 21.6235C4.03481 21.0996 4.17313 20.5826 4.35951 20.087C4.43749 19.8798 4.38301 19.6464 4.22173 19.4953L3.23372 18.5692C3.40943 18.2183 3.6081 17.876 3.82599 17.5465L5.11147 17.9379C5.32296 18.002 5.5526 17.9326 5.69306 17.7617C6.03059 17.351 6.41137 16.9702 6.82473 16.6306C6.99509 16.4901 7.06453 16.2605 7.00044 16.049L6.60951 14.7635C6.93902 14.5451 7.28136 14.3469 7.63223 14.1707L8.55775 15.1587C8.70889 15.32 8.94227 15.3745 9.14895 15.297C9.64562 15.1106 10.1626 14.9723 10.686 14.8858C10.9044 14.85 11.0796 14.6861 11.1298 14.4708L11.4395 13.1437C11.8411 13.1191 12.2214 13.1191 12.623 13.1437L12.9328 14.4708C12.983 14.6861 13.1581 14.85 13.3766 14.8858C13.9005 14.9723 14.4174 15.1106 14.913 15.297C15.1203 15.3761 15.3536 15.3205 15.5048 15.1592L16.4308 14.1712C16.7817 14.3469 17.124 14.5456 17.4535 14.7635L17.0621 16.049C16.998 16.2605 17.0674 16.4901 17.2378 16.6306C17.6501 16.9692 18.0309 17.3499 18.3695 17.7622C18.5099 17.9326 18.739 18.0026 18.9511 17.9379L20.2365 17.547C20.455 17.8765 20.6531 18.2189 20.8293 18.5697L19.8413 19.4953C19.68 19.6464 19.6256 19.8793 19.703 20.0865C19.8894 20.5831 20.0277 21.1001 20.1142 21.6235C20.15 21.8419 20.314 22.0171 20.5292 22.0673L21.8563 22.377C21.8686 22.5778 21.875 22.7754 21.875 22.9688C21.875 23.1621 21.8686 23.3597 21.8563 23.5605L20.5292 23.8703C20.3139 23.9205 20.15 24.0956 20.1142 24.3141C20.0277 24.8374 19.8894 25.3544 19.703 25.8511C19.6255 26.0583 19.68 26.2911 19.8413 26.4423L20.8293 27.3678C20.6531 27.7192 20.4544 28.0615 20.2365 28.3911L18.951 27.9996C18.739 27.9344 18.5099 28.0049 18.3694 28.1753C18.0309 28.5876 17.6501 28.9684 17.2378 29.307C17.0674 29.4474 16.998 29.6771 17.0621 29.8886L17.453 31.174C17.1235 31.3925 16.7811 31.5906 16.4303 31.7668L15.5048 30.7788C15.3536 30.617 15.1192 30.5625 14.9136 30.6405C14.4169 30.8269 13.8999 30.9652 13.3765 31.0517C13.1581 31.0875 12.9829 31.2515 12.9327 31.4667L12.623 32.7938C12.2214 32.8184 11.8411 32.8184 11.4395 32.7938L11.1298 31.4667C11.0796 31.2515 10.9044 31.0875 10.686 31.0517C10.162 30.9652 9.64508 30.8269 9.14947 30.6405C8.94119 30.5609 8.70887 30.6165 8.55773 30.7783L7.63168 31.7663C7.2808 31.5906 6.93847 31.3919 6.60896 31.174L7.00042 29.8886C7.06451 29.6771 6.99508 29.4474 6.82472 29.307C6.41242 28.9684 6.03164 28.5876 5.69305 28.1753C5.55259 28.0049 5.32294 27.935 5.11145 27.9996L3.82598 28.3905C3.60755 28.061 3.40941 27.7187 3.23317 27.3678L4.22118 26.4423C4.38246 26.2911 4.43694 26.0583 4.3595 25.8511C4.17312 25.3544 4.03479 24.8374 3.94828 24.314C3.9125 24.0956 3.74854 23.9204 3.53332 23.8702L2.20618 23.5605C2.19391 23.3597 2.1875 23.1621 2.1875 22.9688C2.1875 22.7754 2.19391 22.5778 2.20619 22.377Z" fill="black"/>
<path d="M33.5185 5.91044L32.5423 5.50989C32.4766 5.3171 32.3997 5.13018 32.3121 4.9502L32.718 3.97875C32.7938 3.79717 32.766 3.58835 32.6453 3.43294C32.3335 3.02973 31.9703 2.66657 31.5671 2.35468C31.4111 2.23291 31.2018 2.20568 31.0213 2.28205L30.0498 2.68846C29.8698 2.60088 29.6829 2.52344 29.4901 2.45775L29.0896 1.48149C29.0148 1.29937 28.8482 1.17173 28.6527 1.14664C28.0823 1.07401 27.6989 1.07401 27.1285 1.14664C26.9331 1.17174 26.7664 1.29938 26.6917 1.48149L26.2911 2.45775C26.0983 2.52344 25.9114 2.60034 25.7314 2.68793L24.76 2.28205C24.5779 2.20621 24.3691 2.23345 24.2136 2.35468C23.8099 2.66817 23.4473 3.0308 23.1359 3.43294C23.0152 3.58835 22.9874 3.79717 23.0633 3.97875L23.4697 4.9502C23.3821 5.13018 23.3047 5.3171 23.239 5.50989L22.2627 5.91044C22.0806 5.98521 21.953 6.15183 21.9279 6.3473C21.8916 6.63248 21.875 6.87441 21.875 7.10939C21.875 7.34438 21.8916 7.58631 21.9279 7.87149C21.953 8.06696 22.0806 8.23358 22.2627 8.30835L23.239 8.70889C23.3047 8.90169 23.3816 9.08861 23.4692 9.26859L23.0633 10.24C22.9874 10.4222 23.0152 10.6304 23.1359 10.7864C23.4494 11.1901 23.812 11.5528 24.2142 11.8641C24.3696 11.9853 24.5789 12.012 24.76 11.9367L25.7314 11.5303C25.9114 11.6179 26.0983 11.6953 26.2911 11.761L26.6917 12.7373C26.7664 12.9194 26.9331 13.0471 27.1285 13.0721C27.4137 13.1085 27.6556 13.125 27.8906 13.125C28.1256 13.125 28.3675 13.1085 28.6527 13.0721C28.8482 13.047 29.0148 12.9194 29.0896 12.7373L29.4901 11.761C29.6829 11.6953 29.8698 11.6184 30.0498 11.5309L31.0213 11.9367C31.2023 12.012 31.4117 11.9848 31.5671 11.8641C31.9703 11.5522 32.3335 11.1891 32.6453 10.7858C32.766 10.6304 32.7938 10.4216 32.718 10.24L32.3116 9.26859C32.3991 9.08861 32.4766 8.90169 32.5423 8.70889L33.5185 8.30835C33.7006 8.23358 33.8283 8.06696 33.8534 7.87149C33.8897 7.58631 33.9062 7.34438 33.9062 7.10939C33.9062 6.87441 33.8897 6.63248 33.8534 6.3473C33.8283 6.15183 33.7006 5.98521 33.5185 5.91044ZM32.8002 7.42075L31.8896 7.79459C31.7342 7.85814 31.6173 7.98952 31.5714 8.15134C31.488 8.444 31.3737 8.72118 31.2312 8.97539C31.1489 9.12172 31.1388 9.2985 31.2034 9.45391L31.5815 10.3575C31.4432 10.514 31.2952 10.6619 31.1388 10.8003L30.2351 10.4227C30.0797 10.3575 29.904 10.3682 29.7572 10.4499C29.5024 10.593 29.2247 10.7073 28.9326 10.7901C28.7708 10.836 28.6394 10.953 28.5758 11.1084L28.202 12.019C27.983 12.0361 27.7982 12.0361 27.5793 12.019L27.2054 11.1084C27.1419 10.953 27.0105 10.836 26.8487 10.7901C26.556 10.7068 26.2789 10.5925 26.0246 10.4499C25.8778 10.3677 25.7015 10.3575 25.5461 10.4221L24.6425 10.8003C24.486 10.6619 24.3381 10.514 24.1998 10.357L24.5774 9.4539C24.642 9.29849 24.6318 9.12225 24.5501 8.97592C24.407 8.72118 24.2927 8.44347 24.2099 8.15134C24.164 7.98952 24.047 7.85814 23.8916 7.79459L22.9811 7.42075C22.9725 7.31127 22.9688 7.20873 22.9688 7.10939C22.9688 7.01006 22.9725 6.90752 22.981 6.79804L23.8916 6.4242C24.047 6.36065 24.164 6.22926 24.2099 6.06745C24.2932 5.77478 24.4075 5.49761 24.5501 5.2434C24.6323 5.09706 24.6425 4.92029 24.5779 4.76488L24.1997 3.86126C24.3381 3.70478 24.486 3.55685 24.643 3.41852L25.5461 3.7961C25.7015 3.86126 25.8767 3.85058 26.0241 3.76887C26.2788 3.62574 26.5565 3.51145 26.8487 3.42867C27.0105 3.38275 27.1419 3.26579 27.2054 3.11038L27.5793 2.19981C27.7982 2.18272 27.983 2.18272 28.202 2.19981L28.5758 3.11038C28.6394 3.26579 28.7707 3.38275 28.9326 3.42867C29.2252 3.51199 29.5024 3.62628 29.7566 3.76887C29.904 3.85165 30.0797 3.86179 30.2351 3.79664L31.1388 3.41852C31.2952 3.55685 31.4432 3.70478 31.5815 3.86126L31.2039 4.76488C31.1393 4.92029 31.1494 5.09653 31.2311 5.24286C31.3743 5.49761 31.4886 5.77531 31.5713 6.06744C31.6173 6.22926 31.7342 6.36064 31.8896 6.42419L32.8002 6.79803C32.8088 6.90752 32.8125 7.01006 32.8125 7.10939C32.8125 7.20873 32.8088 7.31127 32.8002 7.42075Z" fill="black"/>
<path d="M27.8906 4.375C26.383 4.375 25.1562 5.60173 25.1562 7.10938C25.1562 8.61702 26.383 9.84375 27.8906 9.84375C29.3983 9.84375 30.625 8.61702 30.625 7.10938C30.625 5.60173 29.3983 4.375 27.8906 4.375ZM27.8906 8.75C26.9859 8.75 26.25 8.01407 26.25 7.10938C26.25 6.20468 26.9859 5.46875 27.8906 5.46875C28.7953 5.46875 29.5312 6.20468 29.5312 7.10938C29.5312 8.01407 28.7953 8.75 27.8906 8.75Z" fill="black"/>
<path d="M12.0312 29.5312C15.65 29.5312 18.5938 26.5875 18.5938 22.9688C18.5938 19.35 15.65 16.4062 12.0312 16.4062C8.41247 16.4062 5.46875 19.35 5.46875 22.9688C5.46875 26.5875 8.41247 29.5312 12.0312 29.5312ZM12.0312 17.5C15.0465 17.5 17.5 19.9535 17.5 22.9688C17.5 25.984 15.0465 28.4375 12.0312 28.4375C9.01596 28.4375 6.5625 25.984 6.5625 22.9688C6.5625 19.9535 9.01596 17.5 12.0312 17.5Z" fill="black"/>
<path d="M19.8225 3.98657L21.1878 3.07584L21.7948 3.98572L20.4295 4.89646L19.8225 3.98657Z" fill="black"/>
<path d="M15.2732 7.02106L16.638 6.11062L17.245 7.02051L15.8801 7.93094L15.2732 7.02106Z" fill="black"/>
<path d="M17.5474 5.50354L18.9122 4.59311L19.5191 5.50299L18.1543 6.41343L17.5474 5.50354Z" fill="black"/>
<path d="M8.44946 11.5733L9.81429 10.6629L10.4212 11.5728L9.05642 12.4832L8.44946 11.5733Z" fill="black"/>
<path d="M10.7241 10.0558L12.089 9.14536L12.6959 10.0552L11.3311 10.9657L10.7241 10.0558Z" fill="black"/>
<path d="M12.9983 8.53833L14.3631 7.6279L14.9701 8.53778L13.6052 9.44821L12.9983 8.53833Z" fill="black"/>
<path d="M22.498 26.5336L23.3431 25.1274L24.2806 25.6908L23.4355 27.097L22.498 26.5336Z" fill="black"/>
<path d="M23.9055 24.1889L24.7509 22.7822L25.6883 23.3456L24.843 24.7523L23.9055 24.1889Z" fill="black"/>
<path d="M25.314 21.8439L26.159 20.4376L27.0965 21.001L26.2515 22.4072L25.314 21.8439Z" fill="black"/>
<path d="M29.5386 14.809L30.3836 13.4027L31.3211 13.9661L30.4761 15.3723L29.5386 14.809Z" fill="black"/>
<path d="M26.7229 19.499L27.568 18.0927L28.5055 18.6561L27.6604 20.0623L26.7229 19.499Z" fill="black"/>
<path d="M28.1304 17.1542L28.9754 15.7479L29.9129 16.3113L29.0679 17.7175L28.1304 17.1542Z" fill="black"/>
</svg>
